<?xml version="1.0" encoding="UTF-8"?>
<svg version="1.1" xmlns="http://www.w3.org/2000/svg" width="525" height="529">
<path d="M0 0 C14.54957483 -0.28551712 28.84804049 0.19617577 43.28417969 2.06201172 C44.04214844 2.15853027 44.80011719 2.25504883 45.58105469 2.35449219 C90.41368873 8.32107307 130.45968098 28.97480165 165.28417969 57.06201172 C166.71697266 58.14675781 166.71697266 58.14675781 168.17871094 59.25341797 C168.87351562 59.85025391 169.56832031 60.44708984 170.28417969 61.06201172 C170.28417969 61.72201172 170.28417969 62.38201172 170.28417969 63.06201172 C170.87948486 63.33279541 171.47479004 63.6035791 172.08813477 63.88256836 C174.25821528 65.04806685 175.68402593 66.20394138 177.42089844 67.93310547 C178.27965576 68.78557861 178.27965576 68.78557861 179.15576172 69.65527344 C179.75501465 70.26387207 180.35426758 70.8724707 180.97167969 71.49951172 C181.59671387 72.13131348 182.22174805 72.76311523 182.86572266 73.4140625 C188.03489228 78.69801358 192.78109191 84.19716544 197.28417969 90.06201172 C197.7453418 90.65208008 198.20650391 91.24214844 198.68164062 91.85009766 C205.97337717 101.19130081 212.4972388 110.72184092 218.28417969 121.06201172 C218.65639648 121.7175 219.02861328 122.37298828 219.41210938 123.04833984 C233.18801477 147.45271445 242.12373669 174.36705133 246.28417969 202.06201172 C246.46150635 203.19896484 246.63883301 204.33591797 246.8215332 205.50732422 C248.41707842 216.74359817 248.64292199 227.84973384 248.59667969 239.18701172 C248.59452454 240.13799744 248.59236938 241.08898315 248.59014893 242.06878662 C248.53969705 255.93897067 248.17250667 269.4497243 245.28417969 283.06201172 C245.09082031 284.02026855 244.89746094 284.97852539 244.69824219 285.96582031 C238.6895801 315.17923068 228.02189994 344.22216792 211.28417969 369.06201172 C210.18976563 370.70363281 210.18976563 370.70363281 209.07324219 372.37841797 C204.46512562 379.20814633 199.56688814 385.7412974 194.28417969 392.06201172 C193.83139648 392.6050293 193.37861328 393.14804687 192.91210938 393.70751953 C151.98764785 442.62778344 94.18641582 472.08163846 30.85058594 478.56201172 C-10.01347202 482.08359948 -50.17151816 475.32912178 -87.71582031 459.06201172 C-88.44220703 458.75038086 -89.16859375 458.43875 -89.91699219 458.11767578 C-107.15267348 450.63938431 -123.19491659 440.97862292 -137.71582031 429.06201172 C-138.64394531 428.32466797 -139.57207031 427.58732422 -140.52832031 426.82763672 C-147.54417673 421.20697902 -154.17722695 415.22408496 -160.71582031 409.06201172 C-161.44800781 408.37236328 -162.18019531 407.68271484 -162.93457031 406.97216797 C-168.34533426 401.72243866 -173.04497843 395.97062669 -177.71582031 390.06201172 C-178.50988281 389.07330078 -179.30394531 388.08458984 -180.12207031 387.06591797 C-190.68835028 373.67416123 -199.54851052 359.54077735 -206.71582031 344.06201172 C-207.05210449 343.34400391 -207.38838867 342.62599609 -207.73486328 341.88623047 C-214.64821991 327.05287534 -220.12492699 312.31674197 -223.90332031 296.37451172 C-224.14131348 295.38515625 -224.37930664 294.39580078 -224.62451172 293.37646484 C-228.71759932 275.30607109 -230.27674588 257.30342387 -230.15332031 238.81201172 C-230.15027893 237.8354361 -230.14723755 236.85886047 -230.144104 235.85269165 C-230.07258193 220.25690616 -229.13985752 205.3265404 -225.71582031 190.06201172 C-225.49619629 189.04461914 -225.27657227 188.02722656 -225.05029297 186.97900391 C-213.40001245 133.89725868 -183.52425175 85.73026455 -140.71582031 52.06201172 C-139.74128906 51.27052734 -138.76675781 50.47904297 -137.76269531 49.66357422 C-128.91078322 42.61318192 -119.51780137 36.70254313 -109.71582031 31.06201172 C-108.9762207 30.63388184 -108.23662109 30.20575195 -107.47460938 29.76464844 C-74.94902108 11.16939899 -37.43372258 0.8547434 0 0 Z M127.28417969 246.06201172 C126.95417969 247.38201172 126.62417969 248.70201172 126.28417969 250.06201172 C128.75917969 250.55701172 128.75917969 250.55701172 131.28417969 251.06201172 C131.61417969 249.74201172 131.94417969 248.42201172 132.28417969 247.06201172 C130.63417969 246.73201172 128.98417969 246.40201172 127.28417969 246.06201172 Z " fill="#3E69A5" transform="translate(256.7158203125,23.93798828125)"/>
<path d="M0 0 C-2.13594437 8.15141934 -4.59082654 16.17209024 -7.1875 24.1875 C-7.73954102 25.90163086 -7.73954102 25.90163086 -8.30273438 27.65039062 C-9.19964404 30.43430503 -10.09876573 33.21748323 -11 36 C-13.49592913 35.00490119 -15.9874119 34.0052866 -18.46484375 32.96484375 C-19.28082031 32.62582031 -20.09679687 32.28679687 -20.9375 31.9375 C-21.75089844 31.59589844 -22.56429687 31.25429688 -23.40234375 30.90234375 C-32.73606863 27.66010248 -46.28256725 27.15731423 -55.625 30.5625 C-64.32033468 34.85778581 -69.64112511 40.92583024 -73 50 C-74.78181193 55.9435265 -75.30991581 61.25119268 -75.25 67.4375 C-75.25773437 68.23220703 -75.26546875 69.02691406 -75.2734375 69.84570312 C-75.23475733 81.73018435 -72.40698099 92.26413033 -64.18359375 101.015625 C-55.74252911 108.68657462 -44.8968286 108.68752677 -34.00683594 108.18359375 C-26.43616187 107.4909968 -19.67689908 104.2631445 -13.5234375 99.953125 C-12 99 -12 99 -10 99 C-7.03168977 106.4339097 -4.26857351 113.9237992 -1.6875 121.5 C-1.42114746 122.26489746 -1.15479492 123.02979492 -0.88037109 123.81787109 C0.41074501 127.66070057 1.35094507 130.88659736 1 135 C-20.44958105 146.93132946 -45.14500658 150.70764086 -69 144 C-78.43160152 140.98017008 -86.90814871 136.75203887 -95 131 C-96.13888672 130.21689453 -96.13888672 130.21689453 -97.30078125 129.41796875 C-98.14189453 128.71607422 -98.14189453 128.71607422 -99 128 C-99 127.34 -99 126.68 -99 126 C-99.99 125.67 -100.98 125.34 -102 125 C-118.61925069 107.30572785 -122.93545902 85.5444914 -122.33984375 61.9140625 C-121.40442144 41.22824672 -113.86374661 24.31405184 -99 10 C-98.03320312 9.00419922 -98.03320312 9.00419922 -97.046875 7.98828125 C-89.05555879 0.25755143 -77.66186271 -5.14706243 -67 -8 C-66.3805249 -8.1762793 -65.7610498 -8.35255859 -65.12280273 -8.53417969 C-43.13292189 -14.1664214 -19.83538851 -10.18941191 0 0 Z " fill="#FDFEFE" transform="translate(263,253)"/>
<path d="M0 0 C0.77943466 0.00222061 1.55886932 0.00444122 2.36192322 0.00672913 C3.68317955 0.00684242 3.68317955 0.00684242 5.03112793 0.00695801 C5.98841293 0.01211929 6.94569794 0.01728058 7.93199158 0.02259827 C9.39480812 0.02472069 9.39480812 0.02472069 10.88717651 0.02688599 C14.01542675 0.03250319 17.14360656 0.04505859 20.27183533 0.05775452 C22.38706867 0.0627673 24.50230313 0.06733059 26.61753845 0.07142639 C31.81482829 0.0824782 37.01207678 0.09923305 42.20933533 0.12025452 C42.21172368 0.95478212 42.21411203 1.78930973 42.21657276 2.64912605 C42.27570919 22.95518821 42.35125061 43.26113154 42.44505024 63.56706429 C42.49001547 73.38686678 42.52942848 83.20663295 42.55577087 93.02650452 C42.57874504 101.58552229 42.61213659 110.14442518 42.65803689 118.70335186 C42.68197693 123.2352315 42.70070059 127.76699731 42.70694923 132.29893875 C42.71299654 136.56548326 42.73298357 140.83173646 42.76361084 145.09817314 C42.77239674 146.66303802 42.7761125 148.22794097 42.77434349 149.79282951 C42.77268864 151.93242786 42.78940653 154.07114039 42.81060791 156.21061707 C42.81521688 157.40710436 42.81982584 158.60359165 42.82457447 159.83633614 C43.26276679 163.57628987 44.1815717 165.95456461 46.20933533 169.12025452 C51.84911851 172.3128241 51.84911851 172.3128241 66.20933533 171.12025452 C66.20933533 182.67025452 66.20933533 194.22025452 66.20933533 206.12025452 C50.75360527 210.75697353 34.42848822 213.23652049 19.20933533 206.12025452 C9.53419752 200.79015767 3.48282036 193.87803198 0.08582783 183.35075569 C-3.0122294 171.93220106 -3.07973161 160.12253736 -3.03358459 148.3785553 C-3.03466069 146.76222151 -3.03660421 145.14588811 -3.03933716 143.52955627 C-3.04413095 139.1916336 -3.03660313 134.85381585 -3.02638412 130.51590586 C-3.01753062 125.96270799 -3.01936234 121.4095127 -3.01974487 116.85630798 C-3.01881265 109.229266 -3.01018162 101.60226416 -2.99647522 93.97523499 C-2.98067535 85.15047331 -2.97548006 76.32575529 -2.97621077 67.5009805 C-2.97688468 58.0916121 -2.96996146 48.68226056 -2.96076417 39.27289724 C-2.95863047 36.56180985 -2.95792272 33.85072515 -2.95752525 31.13963699 C-2.95652471 26.89600769 -2.95045202 22.65241534 -2.94035912 18.40879822 C-2.93742725 16.84825237 -2.93621013 15.28770227 -2.93678665 13.72715378 C-2.93727386 11.6066114 -2.93165679 9.48617416 -2.92437744 7.36564636 C-2.9227016 6.17665804 -2.92102575 4.98766972 -2.91929913 3.76265144 C-2.74510399 0.18435118 -2.74510399 0.18435118 0 0 Z " fill="#FCFDFE" transform="translate(279.79066467285156,188.87974548339844)"/>
<path d="M0 0 C9.63682576 7.02173511 15.37261521 16.52841805 17.29296875 28.2734375 C18.70528819 39.37779911 14.98947305 50.24727441 8.26953125 59.0546875 C0.94368616 67.27816579 -8.99489926 72.81142038 -20.09765625 73.4765625 C-27.37775774 73.56498479 -32.9482523 73.15217668 -39.70703125 70.2734375 C-43.75239052 70.70856858 -47.17595276 72.24614328 -50.89453125 73.8359375 C-56.72157187 76.14551624 -61.49145565 76.90481651 -67.70703125 76.2734375 C-67.30871094 75.76554687 -66.91039062 75.25765625 -66.5 74.734375 C-59.68149375 65.99985912 -59.68149375 65.99985912 -58.70703125 55.2734375 C-59.85988565 52.16610234 -61.14099032 49.15620535 -62.515625 46.140625 C-66.00837833 37.73511371 -65.65792444 28.27523659 -62.73828125 19.74609375 C-57.88231126 8.10280207 -50.32246329 0.57706463 -38.96875 -4.81640625 C-26.05170528 -10.01445706 -11.34922125 -7.23860865 0 0 Z M-42.70703125 47.2734375 C-43.03703125 48.5934375 -43.36703125 49.9134375 -43.70703125 51.2734375 C-41.23203125 51.7684375 -41.23203125 51.7684375 -38.70703125 52.2734375 C-38.37703125 50.9534375 -38.04703125 49.6334375 -37.70703125 48.2734375 C-39.35703125 47.9434375 -41.00703125 47.6134375 -42.70703125 47.2734375 Z " fill="#FDFDFE" transform="translate(426.70703125,222.7265625)"/>
<path d="M0 0 C7.7662947 6.27913188 14.11082707 13.623086 20.375 21.375 C23.63763141 25.41200815 27.02891036 29.26560898 30.5625 33.0625 C44 47.53545999 44 47.53545999 44 51 C42.98421875 50.97679687 41.9684375 50.95359375 40.921875 50.9296875 C21.25459746 50.61297643 3.91060909 54.24825467 -10.75 68.3125 C-15.39827212 73.19318573 -20.14502327 78.75586527 -22.86607361 84.98155212 C-24.03087172 87.37334224 -25.11166243 89.11544485 -27 91 C-30.73761563 92.12449858 -34.3330579 91.93417172 -38.20703125 91.78125 C-39.28756271 91.76993042 -40.36809418 91.75861084 -41.48136902 91.74694824 C-44.92689586 91.70222318 -48.36823498 91.60186011 -51.8125 91.5 C-54.15033045 91.45986835 -56.48822625 91.42336704 -58.82617188 91.390625 C-64.55220597 91.30250146 -70.27580389 91.16870328 -76 91 C-71.29875657 81.2210539 -62.43190923 72.9866423 -55.33203125 64.83203125 C-47.86044044 56.24935868 -40.48391146 47.58539004 -33.1418457 38.8918457 C-27.79513459 32.56552604 -22.39642479 26.28390501 -17 20 C-14.85364087 17.50045074 -12.70790942 15.00036442 -10.5625 12.5 C-10.0785376 11.93676025 -9.5945752 11.37352051 -9.09594727 10.79321289 C-6.03158228 7.22176022 -3.00514608 3.62144645 0 0 Z " fill="#FDFEFE" transform="translate(266,116)"/>
<path d="M0 0 C2.4375 0.25 2.4375 0.25 5 1 C7.15074624 4.22611936 7.25024706 5.09901519 7.1875 8.8125 C7.18105469 9.64394531 7.17460938 10.47539062 7.16796875 11.33203125 C6.98289748 14.27165163 6.5284592 17.10404356 6 20 C7.20398438 19.97679687 8.40796875 19.95359375 9.6484375 19.9296875 C11.22395215 19.91093137 12.79947348 19.89273101 14.375 19.875 C15.1690625 19.85824219 15.963125 19.84148437 16.78125 19.82421875 C18.85492015 19.80664527 20.92883241 19.89664832 23 20 C23.66 20.66 24.32 21.32 25 22 C24.73486085 24.34206251 24.39387788 26.67612053 24 29 C24.04125 29.804375 24.0825 30.60875 24.125 31.4375 C23.96972543 34.62062863 22.97596776 37.06584767 21.79296875 40.00390625 C21.09364596 41.76427051 20.50629683 43.56823359 19.9375 45.375 C19 48 19 48 17 50 C14.01904297 50.22705078 14.01904297 50.22705078 10.2421875 50.1953125 C9.57913605 50.1924826 8.91608459 50.18965271 8.23294067 50.18673706 C6.11344417 50.17553435 3.99436896 50.15043051 1.875 50.125 C0.43880818 50.11497028 -0.99739025 50.10584441 -2.43359375 50.09765625 C-5.95602238 50.07729539 -9.47753917 50.0381494 -13 50 C-13 41.75 -13 33.5 -13 25 C-12.34 25 -11.68 25 -11 25 C-10.61521484 23.92685547 -10.61521484 23.92685547 -10.22265625 22.83203125 C-8.92140814 19.81795815 -7.3057902 17.38267438 -5.4375 14.6875 C-2.30930626 9.90129881 -1.20971579 6.66232638 -1 1 C-0.67 0.67 -0.34 0.34 0 0 Z " fill="#FDFEFE" transform="translate(109,233)"/>
<path d="M0 0 C-0.42152344 0.47050781 -0.84304688 0.94101563 -1.27734375 1.42578125 C-1.82519531 2.04839844 -2.37304688 2.67101562 -2.9375 3.3125 C-3.75541016 4.23482422 -3.75541016 4.23482422 -4.58984375 5.17578125 C-6.20081559 7.05241958 -6.20081559 7.05241958 -7 10 C-3.52263974 13.78034623 -3.52263974 13.78034623 1 16 C1.33 15.34 1.66 14.68 2 14 C2.66 14 3.32 14 4 14 C4.66 12.68 5.32 11.36 6 10 C7.32 10 8.64 10 10 10 C10.47165352 15.77775561 9.67247656 19.5724348 6 24 C2.34220283 26.63701656 -0.03444673 27.07598325 -4.375 26.6875 C-7.31465125 26.59394326 -8.62168848 26.74138026 -11.07421875 28.41796875 C-15.60264323 32.87521956 -19.4757149 37.95934913 -23.3359375 42.99609375 C-25.51027732 45.61448888 -26.49007704 45.93348831 -29.875 46.375 C-33 46 -33 46 -35.4375 43.8125 C-37 41 -37 41 -36.84985352 38.58325195 C-35.80279676 35.4005724 -34.44118335 34.094165 -31.96484375 31.85546875 C-30.75151367 30.71561523 -30.75151367 30.71561523 -29.51367188 29.55273438 C-27.79992232 27.979307 -26.07856019 26.41413004 -24.34960938 24.85742188 C-19.91789953 20.94053359 -19.91789953 20.94053359 -17.48144531 15.75732422 C-17.47308856 13.3703035 -17.47308856 13.3703035 -18 10 C-16.68029283 6.18751262 -15.36631619 4.33142893 -12.375 1.625 C-8.07780011 -0.44402217 -4.67879749 -0.3743038 0 0 Z M-32 37 C-32.33 38.32 -32.66 39.64 -33 41 C-30.525 41.495 -30.525 41.495 -28 42 C-27.67 40.68 -27.34 39.36 -27 38 C-28.65 37.67 -30.3 37.34 -32 37 Z " fill="#436CA5" transform="translate(416,233)"/>
<path d="M0 0 C4.29 0 8.58 0 13 0 C13 8.91 13 17.82 13 27 C8.71 27 4.42 27 0 27 C0 18.09 0 9.18 0 0 Z " fill="#FEFEFE" transform="translate(80,257)"/>
<path d="M0 0 C1.3303125 0.4021875 1.3303125 0.4021875 2.6875 0.8125 C3.0175 2.1325 3.3475 3.4525 3.6875 4.8125 C4.3475 4.8125 5.0075 4.8125 5.6875 4.8125 C6 7 6 7 5.6875 9.8125 C3.19389016 13.11286596 1.71388571 14.60303353 -2.375 15.4375 C-5.3125 14.8125 -5.3125 14.8125 -7.75 12.625 C-9.3125 9.8125 -9.3125 9.8125 -9.375 7.3125 C-7.40560654 2.67863303 -5.25297648 -0.29733829 0 0 Z M-4.3125 5.8125 C-4.6425 7.1325 -4.9725 8.4525 -5.3125 9.8125 C-2.8375 10.3075 -2.8375 10.3075 -0.3125 10.8125 C0.0175 9.4925 0.3475 8.1725 0.6875 6.8125 C-0.9625 6.4825 -2.6125 6.1525 -4.3125 5.8125 Z " fill="#3A67A4" transform="translate(388.3125,264.1875)"/>
<path d="M0 0 C0.99 0.33 1.98 0.66 3 1 C3.49925898 7.11592251 2.35277477 10.06944887 -1 15 C-1.99 15.495 -1.99 15.495 -3 16 C-3 15.01 -3 14.02 -3 13 C-2.34 13 -1.68 13 -1 13 C-1 12.34 -1 11.68 -1 11 C-1.7734375 10.8453125 -1.7734375 10.8453125 -2.5625 10.6875 C-5.86026435 9.75736134 -8.86633332 8.38604488 -12 7 C-12 7.66 -12 8.32 -12 9 C-12.99 9 -13.98 9 -15 9 C-15 6.36 -15 3.72 -15 1 C-14.51789063 1.433125 -14.03578125 1.86625 -13.5390625 2.3125 C-12.90742188 2.869375 -12.27578125 3.42625 -11.625 4 C-10.99851562 4.556875 -10.37203125 5.11375 -9.7265625 5.6875 C-8.09610167 7.20172487 -8.09610167 7.20172487 -6 7 C-5.67 6.34 -5.34 5.68 -5 5 C-4.34 5 -3.68 5 -3 5 C-2.690625 4.360625 -2.38125 3.72125 -2.0625 3.0625 C-1 1 -1 1 0 0 Z " fill="#486E9E" transform="translate(423,242)"/>
<path d="M0 0 C1.32 0 2.64 0 4 0 C4 0.66 4 1.32 4 2 C4.99 2 5.98 2 7 2 C7 1.34 7 0.68 7 0 C8.32 0.33 9.64 0.66 11 1 C8.25322042 2.9628813 5.50203192 4.91949114 2.75 6.875 C1.97269531 7.43058594 1.19539063 7.98617188 0.39453125 8.55859375 C-0.35957031 9.09355469 -1.11367188 9.62851562 -1.890625 10.1796875 C-2.58188477 10.67194824 -3.27314453 11.16420898 -3.98535156 11.67138672 C-5.93302581 12.9558321 -7.89254184 14.00412271 -10 15 C-10 14.01 -10 13.02 -10 12 C-10.66 11.67 -11.32 11.34 -12 11 C-9 11 -9 11 -7 12 C-7.0928125 10.63875 -7.0928125 10.63875 -7.1875 9.25 C-6.98267553 5.69970913 -6.53294542 4.43913263 -4 2 C-3.01 2 -2.02 2 -1 2 C-1 2.66 -1 3.32 -1 4 C0.32 4 1.64 4 3 4 C3 3.34 3 2.68 3 2 C2.01 2 1.02 2 0 2 C0 1.34 0 0.68 0 0 Z " fill="#4F73A6" transform="translate(401,453)"/>
<path d="M0 0 C0.66 0 1.32 0 2 0 C2.6781037 3.66464553 3.34038144 7.33198596 4 11 C4.19078125 12.02996094 4.3815625 13.05992187 4.578125 14.12109375 C5.59911003 19.84590269 6.22363149 25.18558138 6 31 C5.34 31 4.68 31 4 31 C4 30.01 4 29.02 4 28 C3.34 28 2.68 28 2 28 C2 25.36 2 22.72 2 20 C2.66 20 3.32 20 4 20 C3.34 17.36 2.68 14.72 2 12 C0.68 12 -0.64 12 -2 12 C-2.05422947 10.5629191 -2.09289723 9.12524538 -2.125 7.6875 C-2.14820313 6.88699219 -2.17140625 6.08648437 -2.1953125 5.26171875 C-2 3 -2 3 0 0 Z " fill="#4E75A5" transform="translate(498,209)"/>
<path d="M0 0 C5.70323584 1.62682465 10.68013903 4.33197987 15.875 7.125 C16.75414062 7.59292969 17.63328125 8.06085937 18.5390625 8.54296875 C20.69494271 9.6912093 22.84846777 10.84363903 25 12 C21.5647952 14.29013653 20.014669 14.17842973 16 14 C15.34 12.68 14.68 11.36 14 10 C13.34 10 12.68 10 12 10 C12 9.34 12 8.68 12 8 C10.02 8 8.04 8 6 8 C5.67 7.34 5.34 6.68 5 6 C5.66 6 6.32 6 7 6 C7 5.34 7 4.68 7 4 C4.69 4.66 2.38 5.32 0 6 C-0.38218767 4.34385343 -0.71395102 2.67542976 -1 1 C-0.67 0.67 -0.34 0.34 0 0 Z " fill="#4370AA" transform="translate(364,45)"/>
<path d="M0 0 C2.44038147 2.21096635 3.81906237 4.30573977 5.2265625 7.2734375 C5.6184375 8.0984375 6.0103125 8.9234375 6.4140625 9.7734375 C6.81367188 10.63195312 7.21328125 11.49046875 7.625 12.375 C8.03234375 13.22578125 8.4396875 14.0765625 8.859375 14.953125 C10.75919775 18.99182105 12.24642188 22.57504387 13 27 C12.01 27.33 11.02 27.66 10 28 C9.79375 27.195625 9.5875 26.39125 9.375 25.5625 C8.92125 24.716875 8.4675 23.87125 8 23 C4.94727535 22.10169161 4.94727535 22.10169161 2 22 C2 20.68 2 19.36 2 18 C2.66 18 3.32 18 4 18 C4.95024979 14.30458414 4.95024979 11.69541586 4 8 C3.34 8 2.68 8 2 8 C2 6.68 2 5.36 2 4 C1.34 4 0.68 4 0 4 C0 2.68 0 1.36 0 0 Z " fill="#4D75A8" transform="translate(476,149)"/>
<path d="M0 0 C0.66 0.33 1.32 0.66 2 1 C1.52355287 5.3285729 -1.03871212 7.37189748 -4.0625 10.3125 C-4.55403564 10.79307861 -5.04557129 11.27365723 -5.55200195 11.76879883 C-9.5679707 15.66471262 -13.71447822 19.40212641 -18 23 C-18.66 21.68 -19.32 20.36 -20 19 C-16.375 16 -16.375 16 -13 16 C-13 15.34 -13 14.68 -13 14 C-12.34 14 -11.68 14 -11 14 C-10.938125 13.401875 -10.87625 12.80375 -10.8125 12.1875 C-9.6763243 9.12856542 -7.82669858 8.44958901 -5 7 C-5.33 6.01 -5.66 5.02 -6 4 C-5.01 4 -4.02 4 -3 4 C-1.29467677 2.05990478 -1.29467677 2.05990478 0 0 Z " fill="#6181B1" transform="translate(440,423)"/>
<path d="M0 0 C3 1 3 1 4 3 C4.66 3 5.32 3 6 3 C6.33 2.01 6.66 1.02 7 0 C8.32 0 9.64 0 11 0 C11 0.66 11 1.32 11 2 C11.66 2 12.32 2 13 2 C12.39816251 4.02045442 11.72693904 6.02111039 11 8 C10.01 8.495 10.01 8.495 9 9 C8.34 8.67 7.68 8.34 7 8 C6.67 9.65 6.34 11.3 6 13 C2.57068046 9.2440786 1.43570917 4.76533255 0 0 Z " fill="#5075AB" transform="translate(43,351)"/>
<path d="M0 0 C1.22589844 0.01353516 1.22589844 0.01353516 2.4765625 0.02734375 C3.41628906 0.04474609 3.41628906 0.04474609 4.375 0.0625 C1.16739749 3.86885497 -2.03246109 7.60813567 -5.625 11.0625 C-5.625 10.0725 -5.625 9.0825 -5.625 8.0625 C-7.605 7.4025 -9.585 6.7425 -11.625 6.0625 C-5.63945087 -0.08056358 -5.63945087 -0.08056358 0 0 Z " fill="#4E74A8" transform="translate(411.625,232.9375)"/>
<path d="M0 0 C0.33 0.66 0.66 1.32 1 2 C1.99 2 2.98 2 4 2 C4.33 2.99 4.66 3.98 5 5 C1.7 8.63 -1.6 12.26 -5 16 C-5.92538169 12.29847322 -6.08174162 11.36541838 -5 8 C-4.34 8 -3.68 8 -3 8 C-3 7.34 -3 6.68 -3 6 C-4.32 6.33 -5.64 6.66 -7 7 C-6.67 6.01 -6.34 5.02 -6 4 C-5.01 4 -4.02 4 -3 4 C-3 3.34 -3 2.68 -3 2 C-2.01 1.34 -1.02 0.68 0 0 Z " fill="#466FAB" transform="translate(257,117)"/>
<path d="M0 0 C0.61875 0.33 1.2375 0.66 1.875 1 C3.91018344 2.14193235 3.91018344 2.14193235 6 2 C6.99 2 7.98 2 9 2 C7.41807245 6.50505453 5.08302964 10.27229941 2.5 14.25 C2.09652344 14.88679688 1.69304687 15.52359375 1.27734375 16.1796875 C-1.74946036 20.87473018 -1.74946036 20.87473018 -4 22 C-4 20.68 -4 19.36 -4 18 C-3.34 18 -2.68 18 -2 18 C-2 17.34 -2 16.68 -2 16 C-1.34 16 -0.68 16 0 16 C0 14.68 0 13.36 0 12 C0.66 12 1.32 12 2 12 C1.814375 10.906875 1.62875 9.81375 1.4375 8.6875 C1 5 1 5 2 2 C1.34 2 0.68 2 0 2 C0 1.34 0 0.68 0 0 Z " fill="#5376AE" transform="translate(464,381)"/>
<path d="M0 0 C1.32 0 2.64 0 4 0 C4 0.66 4 1.32 4 2 C4.66 2 5.32 2 6 2 C6.33 1.34 6.66 0.68 7 0 C7 3 7 3 5.35546875 4.82421875 C4.28232422 5.74654297 4.28232422 5.74654297 3.1875 6.6875 C2.47980469 7.31011719 1.77210938 7.93273437 1.04296875 8.57421875 C-1 10 -1 10 -4 10 C-4.66 9.34 -5.32 8.68 -6 8 C-6 6.68 -6 5.36 -6 4 C-3 2 -3 2 0 2 C0 1.34 0 0.68 0 0 Z " fill="#4971A8" transform="translate(164,255)"/>
<path d="M0 0 C2.64 0 5.28 0 8 0 C8 0.66 8 1.32 8 2 C7.34 2 6.68 2 6 2 C6 2.66 6 3.32 6 4 C6.66 4 7.32 4 8 4 C8 5.32 8 6.64 8 8 C3.02398374 9.71050559 -0.42616295 8.00885647 -5 6 C-4.360625 5.38125 -3.72125 4.7625 -3.0625 4.125 C-0.96116416 2.17402388 -0.96116416 2.17402388 0 0 Z " fill="#4A72AB" transform="translate(178,479)"/>
<path d="M0 0 C1.15941038 3.47823115 0.70820884 5.45895578 0 9 C-0.33 8.34 -0.66 7.68 -1 7 C-1.99 7 -2.98 7 -4 7 C-4.33 8.98 -4.66 10.96 -5 13 C-5.66 13 -6.32 13 -7 13 C-7.28875 13.61875 -7.5775 14.2375 -7.875 14.875 C-9 17 -9 17 -11 19 C-11.33 19.99 -11.66 20.98 -12 22 C-12.99 22 -13.98 22 -15 22 C-13.50977142 17.49563677 -10.98491774 14.10211907 -8.0625 10.4375 C-7.17826573 9.31129187 -6.29414832 8.18499199 -5.41015625 7.05859375 C-4.61480469 6.04925781 -3.81945312 5.03992188 -3 4 C-1.99481954 2.67056778 -0.99212422 1.33920398 0 0 Z " fill="#6186B5" transform="translate(81,110)"/>
<path d="M0 0 C6.59904729 1.52785824 12.87389209 3.07617577 19 6 C19 6.33 19 6.66 19 7 C17.02 7 15.04 7 13 7 C13 6.34 13 5.68 13 5 C7.39 5 1.78 5 -4 5 C-4 4.34 -4 3.68 -4 3 C-3.01 3 -2.02 3 -1 3 C-0.67 2.01 -0.34 1.02 0 0 Z " fill="#597DAF" transform="translate(334,34)"/>
<path d="M0 0 C0.66 0 1.32 0 2 0 C2 0.66 2 1.32 2 2 C2.66 2 3.32 2 4 2 C4 1.34 4 0.68 4 0 C4.66 0 5.32 0 6 0 C6.33 3.63 6.66 7.26 7 11 C6.34 11 5.68 11 5 11 C4.67 11.66 4.34 12.32 4 13 C3.13372601 11.40233897 2.28233535 9.79660056 1.4375 8.1875 C0.96183594 7.29417969 0.48617187 6.40085937 -0.00390625 5.48046875 C-1 3 -1 3 0 0 Z " fill="#446FAA" transform="translate(50,363)"/>
<path d="M0 0 C4.17383395 3.92831431 7.89394426 8.16479983 11 13 C11 13.66 11 14.32 11 15 C9.68 15.33 8.36 15.66 7 16 C7 14.35 7 12.7 7 11 C6.34 11 5.68 11 5 11 C5 10.34 5 9.68 5 9 C3.68 9 2.36 9 1 9 C0.01 9 -0.98 9 -2 9 C-1.67 7.88625 -1.34 6.7725 -1 5.625 C0.088643 2.30540283 0.088643 2.30540283 0 0 Z " fill="#6182AB" transform="translate(453,114)"/>
<path d="M0 0 C0.33 0 0.66 0 1 0 C1 7.92 1 15.84 1 24 C0.01 24 -0.98 24 -2 24 C-2 18.39 -2 12.78 -2 7 C-1.67 7 -1.34 7 -1 7 C-0.67 4.69 -0.34 2.38 0 0 Z " fill="#6F8BB4" transform="translate(95,259)"/>
<path d="M0 0 C0.92817192 3.62830843 1.26901295 5.41073355 -0.3125 8.875 C-0.869375 9.57625 -1.42625 10.2775 -2 11 C-2.66 11 -3.32 11 -4 11 C-4 11.66 -4 12.32 -4 13 C-6 12 -6 12 -7 9.875 C-7 5.83057706 -5.09831106 4.24908811 -2.4453125 1.35546875 C-1 0 -1 0 0 0 Z " fill="#4E76AC" transform="translate(89,102)"/>
<path d="M0 0 C1.98 0 3.96 0 6 0 C5.5289356 4.14536674 5.0080208 6.9919792 2 10 C1.01 10 0.02 10 -1 10 C-1.08004482 6.4780279 -1.04005702 3.38018531 0 0 Z " fill="#5377B1" transform="translate(483,349)"/>
<path d="M0 0 C2.475 0.99 2.475 0.99 5 2 C4.09066991 3.27609323 3.17217147 4.54565553 2.25 5.8125 C1.73953125 6.52019531 1.2290625 7.22789062 0.703125 7.95703125 C-1.02482358 10.02977691 -2.78526476 11.47375854 -5 13 C-5 12.01 -5 11.02 -5 10 C-4.34 10 -3.68 10 -3 10 C-2.67 8.35 -2.34 6.7 -2 5 C-2.66 4.67 -3.32 4.34 -4 4 C-2.68 3.34 -1.36 2.68 0 2 C0 1.34 0 0.68 0 0 Z " fill="#5C7DAC" transform="translate(448,411)"/>
<path d="M0 0 C1.98 0 3.96 0 6 0 C4.02 0.99 4.02 0.99 2 2 C2 2.99 2 3.98 2 5 C3.65 5 5.3 5 7 5 C7 7 7 7 5.75 8.6875 C4 10 4 10 2 9.9375 C-0.56957445 8.73301198 -1.57005516 7.43090624 -3 5 C-3 4.01 -3 3.02 -3 2 C-2.01 2 -1.02 2 0 2 C0 1.34 0 0.68 0 0 Z " fill="#7093BB" transform="translate(382,269)"/>
<path d="M0 0 C0.33 0 0.66 0 1 0 C2.20443195 7.05453001 3.28100502 13.83437211 3 21 C2.34 21 1.68 21 1 21 C1 20.01 1 19.02 1 18 C0.34 18 -0.32 18 -1 18 C-1 15.36 -1 12.72 -1 10 C-0.34 10 0.32 10 1 10 C0.67 9.34 0.34 8.68 0 8 C-0.13415472 5.3276379 -0.04318541 2.67749512 0 0 Z " fill="#6585B5" transform="translate(501,219)"/>
<path d="M0 0 C0.33 0 0.66 0 1 0 C1.26404456 6.86515862 0.25841946 13.25846717 -1 20 C-1.66 20 -2.32 20 -3 20 C-3 15.05 -3 10.1 -3 5 C-2.01 4.67 -1.02 4.34 0 4 C0 2.68 0 1.36 0 0 Z " fill="#6A88B0" transform="translate(503,287)"/>
<path d="M0 0 C0.33 0 0.66 0 1 0 C1.49925898 6.11592251 0.35277477 9.06944887 -3 14 C-3.99 14.495 -3.99 14.495 -5 15 C-5 14.01 -5 13.02 -5 12 C-4.34 12 -3.68 12 -3 12 C-3 11.34 -3 10.68 -3 10 C-3.66 10 -4.32 10 -5 10 C-4.67 8.35 -4.34 6.7 -4 5 C-2.68 4.67 -1.36 4.34 0 4 C0 2.68 0 1.36 0 0 Z " fill="#5B7CB0" transform="translate(425,243)"/>
<path d="M0 0 C0.33 0.66 0.66 1.32 1 2 C1.66 2 2.32 2 3 2 C2.814375 2.598125 2.62875 3.19625 2.4375 3.8125 C1.77906313 6.16408762 1.77906313 6.16408762 3 9 C1.02 9.99 1.02 9.99 -1 11 C-2.125 7.6875 -2.125 7.6875 -3 4 C-1 1 -1 1 0 0 Z " fill="#4871AD" transform="translate(255,281)"/>
<path d="M0 0 C-0.33 6.93 -0.66 13.86 -1 21 C-1.33 21 -1.66 21 -2 21 C-2.77040851 14.93303301 -3.09706112 9.11485027 -3 3 C-3.99 3 -4.98 3 -6 3 C-6 2.34 -6 1.68 -6 1 C-1.125 0 -1.125 0 0 0 Z " fill="#41649B" transform="translate(96,254)"/>
<path d="M0 0 C6.27 0.33 12.54 0.66 19 1 C19 1.33 19 1.66 19 2 C16.36 2 13.72 2 11 2 C11 2.99 11 3.98 11 5 C8.36 5 5.72 5 3 5 C3 4.34 3 3.68 3 3 C2.01 2.67 1.02 2.34 0 2 C0 1.34 0 0.68 0 0 Z " fill="#5077B4" transform="translate(189,206)"/>
<path d="M0 0 C3.96 0 7.92 0 12 0 C10.68 0.33 9.36 0.66 8 1 C8 2.32 8 3.64 8 5 C4.37 5 0.74 5 -3 5 C-2.67 4.34 -2.34 3.68 -2 3 C-0.02 3 1.96 3 4 3 C4 2.34 4 1.68 4 1 C2.68 0.67 1.36 0.34 0 0 Z " fill="#4E76A3" transform="translate(294,166)"/>
<path d="M0 0 C0.33 0.66 0.66 1.32 1 2 C1.99 2 2.98 2 4 2 C5.125 5.75 5.125 5.75 4 8 C1.625 8.75 1.625 8.75 -1 9 C-1.99 8.34 -2.98 7.68 -4 7 C-2.68 4.69 -1.36 2.38 0 0 Z " fill="#4772AE" transform="translate(244,197)"/>
<path d="M0 0 C1.32 0.33 2.64 0.66 4 1 C3.04663979 2.31611677 2.08714226 3.62778961 1.125 4.9375 C0.59132812 5.66839844 0.05765625 6.39929688 -0.4921875 7.15234375 C-2 9 -2 9 -4 10 C-6.125 5.375 -6.125 5.375 -5 2 C-2.525 2.99 -2.525 2.99 0 4 C0 2.68 0 1.36 0 0 Z " fill="#476EA8" transform="translate(194,195)"/>
<path d="M0 0 C0.33 0.99 0.66 1.98 1 3 C1.66 3 2.32 3 3 3 C3 4.32 3 5.64 3 7 C1.68 7 0.36 7 -1 7 C-1 6.34 -1 5.68 -1 5 C-1.7425 5.45375 -2.485 5.9075 -3.25 6.375 C-5.47106199 7.68744572 -7.68781872 8.86367159 -10 10 C-3.84965831 2.51708428 -3.84965831 2.51708428 0 0 Z " fill="#5B7EAD" transform="translate(109,82)"/>
<path d="M0 0 C0.99 0.33 1.98 0.66 3 1 C3 2.32 3 3.64 3 5 C2.01 5 1.02 5 0 5 C0 5.66 0 6.32 0 7 C-2.64 7 -5.28 7 -8 7 C-5.42215154 4.35247996 -3.08351902 2.05567935 0 0 Z " fill="#547BAD" transform="translate(132,64)"/>
<path d="M0 0 C0.33 0 0.66 0 1 0 C1.28125 2.23046875 1.28125 2.23046875 1 5 C-0.96875 7.23828125 -0.96875 7.23828125 -3.5 9.3125 C-4.3353125 10.00988281 -5.170625 10.70726562 -6.03125 11.42578125 C-6.6809375 11.94527344 -7.330625 12.46476562 -8 13 C-8.66 11.68 -9.32 10.36 -10 9 C-6.375 6 -6.375 6 -3 6 C-3 5.34 -3 4.68 -3 4 C-2.34 4 -1.68 4 -1 4 C-0.67 2.68 -0.34 1.36 0 0 Z " fill="#5C7CAB" transform="translate(430,433)"/>
<path d="M0 0 C0.66 0 1.32 0 2 0 C4.42857143 7.42857143 4.42857143 7.42857143 3 11 C2.67 9.02 2.34 7.04 2 5 C1.34 5 0.68 5 0 5 C0 6.98 0 8.96 0 11 C-0.66 11 -1.32 11 -2 11 C-2.05399736 9.54207116 -2.09279177 8.08357288 -2.125 6.625 C-2.15980469 5.40683594 -2.15980469 5.40683594 -2.1953125 4.1640625 C-2 2 -2 2 0 0 Z " fill="#5A7EAE" transform="translate(494,194)"/>
<path d="M0 0 C3.5625 0.25 3.5625 0.25 6.5625 2.25 C5.9025 3.57 5.2425 4.89 4.5625 6.25 C-0.3875 4.27 -0.3875 4.27 -5.4375 2.25 C-3.4375 0.25 -3.4375 0.25 0 0 Z " fill="#4E75AC" transform="translate(417.4375,214.75)"/>
<path d="M0 0 C-1.98 0.99 -3.96 1.98 -6 3 C-6 2.34 -6 1.68 -6 1 C-6.99 1 -7.98 1 -9 1 C-9 1.99 -9 2.98 -9 4 C-12.96 4 -16.92 4 -21 4 C-17.62239627 1.74826418 -15.01777776 1.1633205 -11.0625 0.3125 C-9.83660156 0.04050781 -8.61070312 -0.23148438 -7.34765625 -0.51171875 C-4.37544136 -0.94523901 -2.76075615 -1.03095906 0 0 Z " fill="#6E8DB8" transform="translate(224,29)"/>
<path d="M0 0 C0.33 0.66 0.66 1.32 1 2 C1.99 2.33 2.98 2.66 4 3 C2.88243734 6.86848614 1.97126708 9.28922757 -1 12 C-1.02687279 10.18757948 -1.04633715 8.37504767 -1.0625 6.5625 C-1.07410156 5.55316406 -1.08570313 4.54382813 -1.09765625 3.50390625 C-1 1 -1 1 0 0 Z " fill="#577CA8" transform="translate(475,369)"/>
<path d="M0 0 C0.66 0 1.32 0 2 0 C1.00318287 6.45810245 -0.01636492 12.76571832 -2 19 C-2.33 19 -2.66 19 -3 19 C-2.88608368 16.39491364 -2.75934452 13.79154454 -2.625 11.1875 C-2.5940625 10.44951172 -2.563125 9.71152344 -2.53125 8.95117188 C-2.32653852 5.18106885 -2.13566173 3.20349259 0 0 Z " fill="#738CAF" transform="translate(499,309)"/>
<path d="M0 0 C0 0.99 0 1.98 0 3 C-7.92 3.495 -7.92 3.495 -16 4 C-13.41588269 2.27725513 -11.45097344 1.31104478 -8.5625 0.3125 C-7.41974609 -0.09548828 -7.41974609 -0.09548828 -6.25390625 -0.51171875 C-3.78170279 -1.04729142 -2.37016716 -0.80445309 0 0 Z " fill="#648AB6" transform="translate(202,34)"/>
<path d="M0 0 C2.475 0.99 2.475 0.99 5 2 C5 2.66 5 3.32 5 4 C5.66 4 6.32 4 7 4 C7 3.34 7 2.68 7 2 C7.99 2.33 8.98 2.66 10 3 C8.4198632 5.15473199 6.89353366 7.10646634 5 9 C4.16094435 7.87926138 3.32892169 6.75325453 2.5 5.625 C2.0359375 4.99851562 1.571875 4.37203125 1.09375 3.7265625 C0 2 0 2 0 0 Z " fill="#4F72AF" transform="translate(61,387)"/>
<path d="M0 0 C4.23429756 1.31061591 8.07407404 2.94356259 12 5 C12 5.33 12 5.66 12 6 C10.35 6 8.7 6 7 6 C7 5.34 7 4.68 7 4 C4.69 4.66 2.38 5.32 0 6 C-0.38218767 4.34385343 -0.71395102 2.67542976 -1 1 C-0.67 0.67 -0.34 0.34 0 0 Z " fill="#6585B2" transform="translate(364,45)"/>
<path d="M0 0 C0.99 0 1.98 0 3 0 C2.67 1.32 2.34 2.64 2 4 C3.65 4 5.3 4 7 4 C7 5.32 7 6.64 7 8 C2.68607774 7.5206753 0.83430453 6.2542015 -2 3 C-1.34 3 -0.68 3 0 3 C0 2.01 0 1.02 0 0 Z " fill="#5578AD" transform="translate(126,453)"/>
<path d="M0 0 C0.33 1.32 0.66 2.64 1 4 C1.66 4 2.32 4 3 4 C2.45276317 7.37462715 1.9451 9.08235 0 12 C-0.66 12 -1.32 12 -2 12 C-1.85962479 10.18706911 -1.71255111 8.3746557 -1.5625 6.5625 C-1.48128906 5.55316406 -1.40007812 4.54382813 -1.31640625 3.50390625 C-1 1 -1 1 0 0 Z " fill="#4C71AA" transform="translate(117,237)"/>
<path d="M0 0 C1.65 0.33 3.3 0.66 5 1 C2.14415227 2.90389849 0.0688238 3.69462177 -3.1875 4.625 C-4.08855469 4.88539063 -4.98960937 5.14578125 -5.91796875 5.4140625 C-6.94857422 5.70410156 -6.94857422 5.70410156 -8 6 C-7.67 4.68 -7.34 3.36 -7 2 C-4.69 2 -2.38 2 0 2 C0 1.34 0 0.68 0 0 Z " fill="#6B8AB6" transform="translate(354,483)"/>
<path d="M0 0 C1.32 0 2.64 0 4 0 C4 0.66 4 1.32 4 2 C4.99 2 5.98 2 7 2 C7 1.34 7 0.68 7 0 C8.32 0.33 9.64 0.66 11 1 C6.545 3.97 6.545 3.97 2 7 C2.33 5.35 2.66 3.7 3 2 C2.01 2 1.02 2 0 2 C0 1.34 0 0.68 0 0 Z " fill="#6080AD" transform="translate(401,453)"/>
<path d="M0 0 C0.66 0 1.32 0 2 0 C2.66 2.31 3.32 4.62 4 7 C2.35 7.33 0.7 7.66 -1 8 C-1.99 6.68 -2.98 5.36 -4 4 C-2.68 4 -1.36 4 0 4 C0 2.68 0 1.36 0 0 Z " fill="#4472AB" transform="translate(198,345)"/>
<path d="M0 0 C0.66 0.33 1.32 0.66 2 1 C2.3125 3.8125 2.3125 3.8125 2 7 C-0.5 8.875 -0.5 8.875 -3 10 C-3 6.60345276 -2.51816587 2.51816587 0 0 Z " fill="#5074AE" transform="translate(130,274)"/>
<path d="M0 0 C0.99 0.99 1.98 1.98 3 3 C0.69 5.64 -1.62 8.28 -4 11 C-4.99 10.34 -5.98 9.68 -7 9 C-5.38405168 6.95880212 -3.7143618 4.95927063 -2 3 C-1.34 3 -0.68 3 0 3 C0 2.01 0 1.02 0 0 Z " fill="#4972AC" transform="translate(212,174)"/>
<path d="M0 0 C3.63 0 7.26 0 11 0 C11 0.66 11 1.32 11 2 C10.34 2 9.68 2 9 2 C9 2.66 9 3.32 9 4 C4.545 3.01 4.545 3.01 0 2 C0 1.34 0 0.68 0 0 Z " fill="#5173AA" transform="translate(239,243)"/>
<path d="M0 0 C1.49080078 0.16628906 1.49080078 0.16628906 3.01171875 0.3359375 C3.77097656 0.43132812 4.53023438 0.52671875 5.3125 0.625 C5.3125 0.955 5.3125 1.285 5.3125 1.625 C3.43862523 1.9646019 1.56333303 2.29638691 -0.3125 2.625 C-1.35664063 2.810625 -2.40078125 2.99625 -3.4765625 3.1875 C-6.59324865 3.61215797 -9.54680812 3.70045206 -12.6875 3.625 C-11.7903125 3.191875 -11.7903125 3.191875 -10.875 2.75 C-4.49867021 -0.52925532 -4.49867021 -0.52925532 0 0 Z " fill="#7B96C0" transform="translate(306.6875,497.375)"/>
<path d="M0 0 C0.66 0 1.32 0 2 0 C3.125 5.75 3.125 5.75 2 8 C0.68 7.67 -0.64 7.34 -2 7 C-1.125 2.25 -1.125 2.25 0 0 Z " fill="#4D72A8" transform="translate(452,405)"/>
<path d="M0 0 C0.33 0.66 0.66 1.32 1 2 C0.67 2.66 0.34 3.32 0 4 C0.99 4 1.98 4 3 4 C3 3.34 3 2.68 3 2 C3.99 2 4.98 2 6 2 C5.6875 3.9375 5.6875 3.9375 5 6 C1.37673261 7.2077558 0.35853631 6.54311128 -3 5 C-2.01 3.35 -1.02 1.7 0 0 Z " fill="#4C72A6" transform="translate(196,291)"/>
<path d="M0 0 C2.31 1.98 4.62 3.96 7 6 C6.01 6.495 6.01 6.495 5 7 C4.34 6.67 3.68 6.34 3 6 C3 6.66 3 7.32 3 8 C2.01 8 1.02 8 0 8 C0 5.36 0 2.72 0 0 Z " fill="#5378AD" transform="translate(408,243)"/>
<path d="M0 0 C0.66 0 1.32 0 2 0 C0.44298069 4.67105792 -2.08447373 8.08705685 -5 12 C-5.33 10.68 -5.66 9.36 -6 8 C-5.34 8 -4.68 8 -4 8 C-4 7.34 -4 6.68 -4 6 C-3.34 6 -2.68 6 -2 6 C-2 4.68 -2 3.36 -2 2 C-1.34 2 -0.68 2 0 2 C0 1.34 0 0.68 0 0 Z " fill="#7C92B1" transform="translate(466,391)"/>
<path d="M0 0 C2 3 2 3 1.625 5.1875 C1.41875 5.785625 1.2125 6.38375 1 7 C0.01 7 -0.98 7 -2 7 C-2 7.66 -2 8.32 -2 9 C-2.99 9.33 -3.98 9.66 -5 10 C-3.66511872 6.40608886 -2.03977277 3.24509304 0 0 Z " fill="#6487B0" transform="translate(61,138)"/>
<path d="M0 0 C7 8.44827586 7 8.44827586 7 12 C4 11 4 11 2 8 C2 6.68 2 5.36 2 4 C1.34 4 0.68 4 0 4 C0 2.68 0 1.36 0 0 Z " fill="#6987AB" transform="translate(468,135)"/>
<path d="M0 0 C0 0.66 0 1.32 0 2 C0.99 2 1.98 2 3 2 C3 2.66 3 3.32 3 4 C4.65 4 6.3 4 8 4 C8.33 4.99 8.66 5.98 9 7 C-0.59453303 4.10933941 -0.59453303 4.10933941 -4 1 C-2 0 -2 0 0 0 Z " fill="#718DB3" transform="translate(160,475)"/>
<path d="M0 0 C2.35716404 2.15454249 3.78966144 4.19719874 5.1875 7.0625 C5.53167969 7.75472656 5.87585938 8.44695312 6.23046875 9.16015625 C7 11 7 11 7 13 C6.01 12.67 5.02 12.34 4 12 C4 10.68 4 9.36 4 8 C3.34 8 2.68 8 2 8 C2 6.68 2 5.36 2 4 C1.34 4 0.68 4 0 4 C0 2.68 0 1.36 0 0 Z " fill="#7993B5" transform="translate(476,149)"/>
<path d="M0 0 C0.99 0.33 1.98 0.66 3 1 C1.02 3.31 -0.96 5.62 -3 8 C-3.99 7.01 -4.98 6.02 -6 5 C-5.67 4.34 -5.34 3.68 -5 3 C-4.01 3.33 -3.02 3.66 -2 4 C-2 3.01 -2 2.02 -2 1 C-1.34 0.67 -0.68 0.34 0 0 Z " fill="#4F72A6" transform="translate(234,150)"/>
<path d="M0 0 C3.15330554 0.60694155 5.18888867 1.6416665 7.75 3.5625 C8.67039062 4.24505859 8.67039062 4.24505859 9.609375 4.94140625 C10.29773438 5.46541016 10.29773438 5.46541016 11 6 C9.234375 6.64453125 9.234375 6.64453125 7 7 C5.078125 6.07421875 5.078125 6.07421875 3.25 4.6875 C2.63640625 4.23761719 2.0228125 3.78773437 1.390625 3.32421875 C0.93171875 2.88722656 0.4728125 2.45023437 0 2 C0 1.34 0 0.68 0 0 Z " fill="#6180AA" transform="translate(394,62)"/>
<path d="M0 0 C2 1 2 1 4 3 C4 3.99 4 4.98 4 6 C2.02 6 0.04 6 -2 6 C-2.33 4.68 -2.66 3.36 -3 2 C-2.01 1.34 -1.02 0.68 0 0 Z " fill="#4D79B3" transform="translate(150,53)"/>
<path d="M0 0 C2.31 0.66 4.62 1.32 7 2 C7.33 3.98 7.66 5.96 8 8 C6.85073734 7.04578192 5.70569459 6.08647955 4.5625 5.125 C3.92441406 4.59132813 3.28632812 4.05765625 2.62890625 3.5078125 C1 2 1 2 0 0 Z " fill="#6E8BB0" transform="translate(88,424)"/>
<path d="M0 0 C3.37462715 0.54723683 5.08235 1.0549 8 3 C4.535 4.485 4.535 4.485 1 6 C0 3 0 3 0 0 Z " fill="#4B73A6" transform="translate(384,292)"/>
<path d="M0 0 C0.66 0 1.32 0 2 0 C2 2.64 2 5.28 2 8 C2.66 8.33 3.32 8.66 4 9 C1 11 1 11 -1.1875 10.625 C-1.785625 10.41875 -2.38375 10.2125 -3 10 C-1.68 9.34 -0.36 8.68 1 8 C0.67 5.36 0.34 2.72 0 0 Z " fill="#527BAB" transform="translate(388,268)"/>
<path d="M0 0 C0.99 0.33 1.98 0.66 3 1 C2.67 2.65 2.34 4.3 2 6 C0.35 6.33 -1.3 6.66 -3 7 C-3.1875 4.625 -3.1875 4.625 -3 2 C-2.01 1.34 -1.02 0.68 0 0 Z " fill="#4774AA" transform="translate(134,267)"/>
<path d="M0 0 C1.98 0 3.96 0 6 0 C5.67 1.98 5.34 3.96 5 6 C4.34 6 3.68 6 3 6 C3 5.34 3 4.68 3 4 C2.34 4 1.68 4 1 4 C0.67 2.68 0.34 1.36 0 0 Z " fill="#587BA7" transform="translate(483,349)"/>
<path d="M0 0 C-1.32 1.32 -2.64 2.64 -4 4 C-4 3.34 -4 2.68 -4 2 C-5.65 1.67 -7.3 1.34 -9 1 C-9 0.34 -9 -0.32 -9 -1 C-5.79937313 -2.60031344 -3.27728194 -1.03173691 0 0 Z " fill="#4A74AE" transform="translate(408,70)"/>
<path d="M0 0 C2.475 0.495 2.475 0.495 5 1 C5 1.66 5 2.32 5 3 C5.99 3.33 6.98 3.66 8 4 C7.67 5.32 7.34 6.64 7 8 C5.83035398 6.8572081 4.66435444 5.71068285 3.5 4.5625 C2.8503125 3.92441406 2.200625 3.28632813 1.53125 2.62890625 C0 1 0 1 0 0 Z " fill="#6E8CB3" transform="translate(96,432)"/>
<path d="M0 0 C1.5 1.1875 1.5 1.1875 3 3 C3.1875 5.6875 3.1875 5.6875 3 8 C1.35 8.33 -0.3 8.66 -2 9 C-1.67 7.88625 -1.34 6.7725 -1 5.625 C0.088643 2.30540283 0.088643 2.30540283 0 0 Z " fill="#5175AB" transform="translate(453,114)"/>
<path d="M0 0 C1.134375 0.020625 2.26875 0.04125 3.4375 0.0625 C3.4375 1.0525 3.4375 2.0425 3.4375 3.0625 C1.7875 3.3925 0.1375 3.7225 -1.5625 4.0625 C-1.5625 3.4025 -1.5625 2.7425 -1.5625 2.0625 C-2.5525 1.7325 -3.5425 1.4025 -4.5625 1.0625 C-3.5625 0.0625 -3.5625 0.0625 0 0 Z " fill="#486DA7" transform="translate(234.5625,356.9375)"/>
<path d="M0 0 C0.33 0.99 0.66 1.98 1 3 C-0.32 3 -1.64 3 -3 3 C-2.67 4.65 -2.34 6.3 -2 8 C-3.32 7.01 -4.64 6.02 -6 5 C-5.67 4.01 -5.34 3.02 -5 2 C-2.4375 0.8125 -2.4375 0.8125 0 0 Z " fill="#4B6DA3" transform="translate(273,112)"/>
<path d="M0 0 C0.33 0.66 0.66 1.32 1 2 C1.66 2 2.32 2 3 2 C3.33 1.34 3.66 0.68 4 0 C4 3.63 4 7.26 4 11 C1.55160412 7.32740617 0 4.45351799 0 0 Z " fill="#6D8AB8" transform="translate(36,330)"/>
<path d="M0 0 C0.33 0.66 0.66 1.32 1 2 C1.99 2 2.98 2 4 2 C4 2.66 4 3.32 4 4 C2.68 4 1.36 4 0 4 C-0.66 5.32 -1.32 6.64 -2 8 C-2.33 7.34 -2.66 6.68 -3 6 C-2.06553465 3.96855359 -1.06775224 1.96466413 0 0 Z " fill="#4B6FA2" transform="translate(192,297)"/>
<path d="M0 0 C0 0.99 0 1.98 0 3 C-1.32 2.67 -2.64 2.34 -4 2 C-4 1.67 -4 1.34 -4 1 C-6.64 0.67 -9.28 0.34 -12 0 C-12 -0.33 -12 -0.66 -12 -1 C-10.56465159 -1.2226746 -9.12654475 -1.42761906 -7.6875 -1.625 C-6.48673828 -1.79902344 -6.48673828 -1.79902344 -5.26171875 -1.9765625 C-3 -2 -3 -2 0 0 Z " fill="#5178B2" transform="translate(242,208)"/>
<path d="M0 0 C0.66 0.33 1.32 0.66 2 1 C0.02 3.31 -1.96 5.62 -4 8 C-5 4 -5 4 -4 2 C-2.68 2 -1.36 2 0 2 C0 1.34 0 0.68 0 0 Z " fill="#5778AE" transform="translate(256,125)"/>
<path d="M0 0 C2.375 0.3125 2.375 0.3125 5 1 C5.66 1.99 6.32 2.98 7 4 C5.35 4.33 3.7 4.66 2 5 C1.34 3.35 0.68 1.7 0 0 Z " fill="#557BAA" transform="translate(410,74)"/>
<path d="M0 0 C2.31 0.33 4.62 0.66 7 1 C7 1.66 7 2.32 7 3 C4.69 3 2.38 3 0 3 C0 2.01 0 1.02 0 0 Z " fill="#40669A" transform="translate(307,398)"/>
<path d="M0 0 C0.99 0 1.98 0 3 0 C3 1.98 3 3.96 3 6 C2.01 6 1.02 6 0 6 C-0.38218767 4.34385343 -0.71395102 2.67542976 -1 1 C-0.67 0.67 -0.34 0.34 0 0 Z " fill="#4B73A9" transform="translate(69,395)"/>
<path d="M0 0 C0.33 0.66 0.66 1.32 1 2 C1.99 1.67 2.98 1.34 4 1 C4 2.65 4 4.3 4 6 C2.68 6 1.36 6 0 6 C-0.38218767 4.34385343 -0.71395102 2.67542976 -1 1 C-0.67 0.67 -0.34 0.34 0 0 Z " fill="#4873A8" transform="translate(254,351)"/>
<path d="M0 0 C2.17854707 3.2678206 3.49760034 6.38058265 5 10 C4.01 10 3.02 10 2 10 C-0.09350689 6.5980513 -0.17942163 3.94727588 0 0 Z " fill="#5E7BB2" transform="translate(364,269)"/>
<path d="M0 0 C0 0.99 0 1.98 0 3 C-3.63 2.67 -7.26 2.34 -11 2 C-11 1.67 -11 1.34 -11 1 C-7.26562152 0.12132271 -3.83225427 -0.08912219 0 0 Z " fill="#7690BE" transform="translate(230,497)"/>
<path d="M0 0 C0.33 1.32 0.66 2.64 1 4 C-2 4 -2 4 -4.1875 2 C-4.785625 1.34 -5.38375 0.68 -6 0 C-3.50907189 -1.24546405 -2.58919267 -0.7767578 0 0 Z " fill="#5979A8" transform="translate(110,440)"/>
<path d="M0 0 C0.66 1.32 1.32 2.64 2 4 C1.34 4 0.68 4 0 4 C0 7.63 0 11.26 0 15 C-0.33 15 -0.66 15 -1 15 C-1.02693575 12.87506859 -1.04636628 10.75004088 -1.0625 8.625 C-1.07410156 7.44164062 -1.08570313 6.25828125 -1.09765625 5.0390625 C-1 2 -1 2 0 0 Z " fill="#426797" transform="translate(188,313)"/>
<path d="M0 0 C0 1.32 0 2.64 0 4 C-1.98 4 -3.96 4 -6 4 C-6.33 3.34 -6.66 2.68 -7 2 C-2.25 0 -2.25 0 0 0 Z " fill="#456FA8" transform="translate(424,291)"/>
<path d="M0 0 C0.66 0 1.32 0 2 0 C2 1.65 2 3.3 2 5 C0.35 5 -1.3 5 -3 5 C-1.125 1.125 -1.125 1.125 0 0 Z " fill="#5073A2" transform="translate(423,242)"/>
<path d="M0 0 C1 4 1 4 1 8 C0.34 8 -0.32 8 -1 8 C-1 8.66 -1 9.32 -1 10 C-1.66 10 -2.32 10 -3 10 C-2.01 6.7 -1.02 3.4 0 0 Z " fill="#7392B6" transform="translate(44,171)"/>
<path d="M0 0 C0.66 0 1.32 0 2 0 C3.125 2.8125 3.125 2.8125 4 6 C3.01 7.485 3.01 7.485 2 9 C0.14223235 5.86501708 -0.20140476 3.62528568 0 0 Z " fill="#4671AE" transform="translate(308,159)"/>
<path d="M0 0 C3.66881155 0.70554068 6.70450534 2.27735506 10 4 C6.71023192 5.09658936 5.28696233 4.79953138 2 4 C2 3.34 2 2.68 2 2 C1.34 2 0.68 2 0 2 C0 1.34 0 0.68 0 0 Z " fill="#7390B6" transform="translate(379,53)"/>
<path d="M0 0 C0.66 0.33 1.32 0.66 2 1 C1.6875 2.875 1.6875 2.875 1 5 C0.01 5.66 -0.98 6.32 -2 7 C-2.125 4.625 -2.125 4.625 -2 2 C-1.34 1.34 -0.68 0.68 0 0 Z " fill="#6B89B0" transform="translate(440,423)"/>
<path d="M0 0 C0.66 0 1.32 0 2 0 C2.144375 0.78375 2.28875 1.5675 2.4375 2.375 C2.87798925 4.96421018 2.87798925 4.96421018 4 7 C3.34 7.66 2.68 8.32 2 9 C0.4375 6.1875 0.4375 6.1875 -1 3 C-0.67 2.01 -0.34 1.02 0 0 Z " fill="#6280AD" transform="translate(50,363)"/>
<path d="M0 0 C1.98 0.99 3.96 1.98 6 3 C6.33 2.34 6.66 1.68 7 1 C7 2.32 7 3.64 7 5 C4.33333333 4.33333333 1.66666667 3.66666667 -1 3 C-0.67 2.01 -0.34 1.02 0 0 Z " fill="#4B6B9C" transform="translate(246,286)"/>
<path d="M0 0 C0.66 0.66 1.32 1.32 2 2 C0.35 3.32 -1.3 4.64 -3 6 C-3 5.34 -3 4.68 -3 4 C-3.99 3.67 -4.98 3.34 -6 3 C-4.125 1.9375 -4.125 1.9375 -2 1 C-1.34 1.33 -0.68 1.66 0 2 C0 1.34 0 0.68 0 0 Z " fill="#5075AD" transform="translate(404,259)"/>
<path d="M0 0 C-3.6441774 2.4294516 -5.71241272 2.16179575 -10 2 C-6.86358686 -1.13641314 -4.14410883 -1.38136961 0 0 Z " fill="#39639D" transform="translate(210,33)"/>
<path d="M0 0 C1.32 0 2.64 0 4 0 C3.67 1.65 3.34 3.3 3 5 C1.68 3.68 0.36 2.36 -1 1 C-0.67 0.67 -0.34 0.34 0 0 Z " fill="#5F83B8" transform="translate(82,415)"/>
<path d="M0 0 C2.475 0.99 2.475 0.99 5 2 C4.67 3.32 4.34 4.64 4 6 C2.62437146 4.71034824 1.29233607 3.37310707 0 2 C0 1.34 0 0.68 0 0 Z " fill="#6484B2" transform="translate(61,387)"/>
<path d="M0 0 C0.99 0.33 1.98 0.66 3 1 C3.33 2.65 3.66 4.3 4 6 C3.01 6.33 2.02 6.66 1 7 C0.67 4.69 0.34 2.38 0 0 Z " fill="#5D79A9" transform="translate(485,170)"/>
<path d="M0 0 C0.99 0.33 1.98 0.66 3 1 C2 4 2 4 -0.0625 5.1875 C-0.701875 5.455625 -1.34125 5.72375 -2 6 C-1.125 1.125 -1.125 1.125 0 0 Z " fill="#597FAD" transform="translate(74,119)"/>
</svg>
